# xmcd
#
# Track frame offsets:
#	150
#	21173
#	40319
#	58126
#	75913
#	94706
#	113196
#	134119
#	153197
#	170886
#	195436
#	217761
#
# Disc length: 3131 seconds
#
# Revision: 0
# Processed by: cddbd v1.5.2PL0 Copyright (c) Steve Scherf et al.
# Submitted via: EasyCDDAExtractor 2010.6.0.0
#
DISCID=9c0c390c
DTITLE=Negative - Neon
DYEAR=2010
DGENRE=Hard Rock
TTITLE0=No One Can Save Me Tonight
TTITLE1=End Of The Line
TTITLE2=Love That I Lost
TTITLE3=Blood On Blood
TTITLE4=Believe
TTITLE5=Celestial Summer
TTITLE6=Jealous Sky
TTITLE7=Day I'm Living For
TTITLE8=Since You've Been Gone
TTITLE9=Kiss Of Hope
TTITLE10=Fucking Worthless
TTITLE11=Neon Rain
EXTD=
EXTT0=
EXTT1=
EXTT2=
EXTT3=
EXTT4=
EXTT5=
EXTT6=
EXTT7=
EXTT8=
EXTT9=
EXTT10=
EXTT11=
PLAYORDER=
